<?xml version="1.0" standalone="no"?>
<!DOCTYPE svg PUBLIC "-//W3C//DTD SVG 20010904//EN"
 "http://www.w3.org/TR/2001/REC-SVG-20010904/DTD/svg10.dtd">
<svg version="1.0" xmlns="http://www.w3.org/2000/svg"
 width="700.000000pt" height="700.000000pt" viewBox="0 0 700.000000 700.000000"
 preserveAspectRatio="xMidYMid meet">
<metadata>
Created by potrace 1.14, written by Peter Selinger 2001-2017
</metadata>
<g transform="translate(0.000000,700.000000) scale(0.100000,-0.100000)"
fill="#000000" stroke="none">
<path d="M1467 6124 c-1 -1 -31 -4 -67 -8 -36 -3 -80 -10 -98 -15 -18 -5 -36
-10 -40 -11 -40 -6 -134 -40 -211 -78 -249 -121 -453 -345 -545 -601 -104
-287 -88 -586 44 -857 124 -255 348 -458 605 -549 28 -9 57 -20 65 -23 18 -6
20 -7 90 -20 30 -6 73 -14 94 -17 48 -7 221 -7 256 -1 14 3 41 7 60 10 64 9
206 55 276 88 102 48 208 121 298 208 l81 78 160 -94 c197 -116 198 -116 265
-117 172 -1 277 194 182 337 -26 39 -158 127 -317 211 -87 46 -85 42 -69 110
41 176 37 385 -12 553 -122 421 -467 722 -904 788 -43 6 -207 13 -213 8z m233
-459 c400 -104 603 -561 413 -930 -87 -170 -207 -273 -393 -336 -49 -17 -92
-23 -175 -25 -108 -2 -158 5 -250 39 -166 60 -311 203 -376 371 -36 93 -40
113 -44 221 -16 439 399 771 825 660z"/>
<path d="M5740 5123 c-76 -7 -244 -46 -371 -84 -74 -23 -168 -52 -209 -64
-339 -102 -1160 -354 -1260 -387 -200 -64 -330 -131 -476 -244 -179 -139 -320
-312 -423 -519 -102 -205 -137 -347 -156 -625 -3 -41 -13 -97 -22 -125 -19
-60 -74 -145 -115 -180 -33 -28 -245 -155 -258 -155 -5 0 -10 -3 -12 -7 -1 -5
-20 -17 -40 -27 l-38 -19 -74 70 c-336 320 -813 395 -1231 194 -214 -103 -395
-279 -499 -489 -179 -359 -154 -769 67 -1102 39 -58 122 -156 166 -195 19 -16
40 -35 46 -41 26 -27 165 -113 225 -141 244 -114 519 -138 767 -67 349 101
621 357 737 696 69 201 79 429 27 621 l-18 67 31 19 c17 10 76 45 131 77 96
55 124 71 199 113 19 11 53 31 75 45 22 15 43 26 45 26 4 0 178 100 226 129 8
5 60 35 115 67 55 31 164 95 243 141 79 45 147 83 152 83 6 0 10 5 10 10 0 6
4 10 10 10 5 0 62 31 127 69 168 97 311 180 358 206 22 13 150 87 285 165 135
79 266 154 291 169 130 74 414 239 447 259 20 12 44 25 52 29 15 7 130 74 160
93 8 6 22 13 30 17 8 4 91 51 184 106 93 54 190 110 215 124 162 90 639 369
655 382 10 9 29 35 43 58 61 105 19 244 -91 298 -50 24 -364 108 -448 120 -50
7 -327 13 -378 8z m-2136 -1432 c125 -71 151 -232 54 -340 -39 -43 -80 -61
-146 -66 -157 -10 -267 139 -215 291 18 53 74 109 127 128 56 19 132 14 180
-13z m-1984 -1076 c81 -11 173 -45 266 -98 81 -47 188 -172 238 -279 104 -224
67 -499 -94 -691 -82 -98 -190 -170 -315 -209 -102 -32 -271 -32 -375 1 -274
85 -455 320 -466 601 -7 188 57 353 190 485 113 113 241 176 388 193 64 8 87
7 168 -3z"/>
<path d="M4831 3343 c-14 -3 -129 -65 -255 -138 -127 -73 -247 -142 -266 -152
-19 -11 -102 -59 -183 -107 -82 -47 -153 -86 -158 -86 -5 0 -9 -4 -9 -10 0 -5
-6 -10 -14 -10 -25 0 -112 -77 -131 -116 -29 -59 -28 -138 0 -194 34 -67 82
-98 209 -137 185 -57 415 -127 746 -228 173 -53 403 -124 510 -156 228 -70
293 -87 415 -104 112 -17 352 -12 460 8 111 21 352 85 400 106 115 51 163 187
106 300 -20 38 -83 93 -141 123 -25 12 -94 52 -800 460 -195 113 -375 217
-400 231 -25 14 -110 63 -190 109 -187 109 -212 117 -299 101z"/>
</g>
</svg>
